<svg id="btmRect" xmlns="http://www.w3.org/2000/svg" width="582" height="323" viewBox="0 0 582 323">
  <defs>
    <style>
      .cls-1 {
        fill: #2b4d6d;
      }

      .cls-2 {
        fill: #eeeef2;
        fill-rule: evenodd;
      }
    </style>
  </defs>
  <rect id="bottomRect" class="cls-1" width="582" height="323"/>
  <path id="snowFlake" class="cls-2" d="M567,284.886l-1.063-1.864H561.05l1.725-3.087-1.03-1.806h-2.062l-2.736,4.893h-1.906L556.5,280.4l-1.03-1.806h-2.063l-1.247,2.231-3.111-5.452,2.534,0.021,1.03-1.806-1.03-1.806-2.973-.027,0.954-1.67,5.556,0.049,1.031-1.806-1.031-1.807-3.5-.031,2.443-4.28L553,260.352h-2.126l-2.442,4.279-1.779-3.056H544.59l-1.032,1.807,2.821,4.845-0.952,1.67-1.51-2.591h-2.061l-1.031,1.807,1.287,2.209h-6.224l1.286-2.209-1.03-1.807h-2.062l-1.508,2.591-0.953-1.67,2.82-4.844-1.03-1.807h-2.063l-1.778,3.056-2.443-4.279H525l-1.063,1.863,2.442,4.28-3.5.031-1.03,1.807,1.03,1.807,5.557-.05,0.953,1.67-2.972.027-1.03,1.806,1.03,1.806,2.533-.021-3.11,5.452-1.248-2.231h-2.061l-1.031,1.807,1.463,2.617h-1.907l-2.736-4.894h-2.061l-1.03,1.807,1.725,3.087h-4.884L511,284.886l1.064,1.863h4.884l-1.725,3.087,1.03,1.807h2.061l2.736-4.893h1.906l-1.462,2.615,1.031,1.808h2.061l1.248-2.232,3.112,5.452-2.535-.022-1.03,1.807,1.03,1.806,2.972,0.026-0.953,1.671-5.557-.05-1.03,1.807,1.03,1.807,3.5,0.031-2.442,4.281L525,309.42h2.125l2.443-4.281,1.779,3.057h2.062l1.031-1.807-2.821-4.844,0.953-1.671,1.508,2.591h2.062l1.032-1.806-1.287-2.21h6.223l-1.286,2.21,1.03,1.807h2.062l1.509-2.592,0.952,1.671-2.821,4.844,1.032,1.806h2.061l1.78-3.056,2.442,4.28H553l1.064-1.862-2.443-4.282,3.5-.031,1.031-1.806-1.031-1.807-5.555.049-0.953-1.67,2.969-.026,1.032-1.807-1.03-1.806-2.534.022,3.111-5.453,1.247,2.232h2.063l1.03-1.808-1.463-2.616h1.906l2.736,4.894h2.062l1.03-1.807-1.725-3.087h4.884Z"/>
  <path id="grass" class="cls-2" d="M33.7,37.772S34.227,18.417,43,15.5C37.949,23.718,36.621,28.226,33.7,37.772Zm5.761-2.9a81.288,81.288,0,0,0-5.666,16.965S31.365,40.254,39.456,34.869ZM25.435,12.018c12.379,22.335,4.528,35.947,2.106,40.732C27.542,52.75,32.3,37.187,25.435,12.018Zm-7.761,7.33C28.605,33.086,24.761,41,24.761,41,23.674,33.253,20.413,25.412,17.674,19.348Zm7.5,30.291-0.819,6.443c-1.353-5.943.455-15.487-10.347-26.919C26.516,38,25.177,49.64,25.177,49.64Zm15.968-7.247c1.019-.822-1.486,4.642-4.938,9.727C36.207,52.119,36.052,44.232,41.145,42.392Z"/>
  <path id="snowOrnament" class="cls-2" d="M322,142.437l-1.475-.85-7.545,4.348,0.013-1.489-1.475-.848-1.474.848-0.029,3.2-6.234,3.591,0.027-3.27-1.475-.85-1.474.85-0.041,4.977-3.16,1.821-4.179-2.406V148.7l4.276-2.509v-1.7l-1.474-.849-2.8,1.645V138.1l2.736-1.609v-1.7l-1.475-.849-1.261.741v-8.679L292,125.158l-1.475.849V134.7l-1.285-.755-1.474.849v1.7l2.759,1.623V145.3L287.7,143.64l-1.475.849v1.7l4.3,2.524v3.642l-4.179,2.406-3.172-1.827-0.041-4.951-1.474-.85-1.475.85,0.027,3.244-6.234-3.591-0.029-3.169-1.474-.849-1.475.849,0.013,1.46-7.533-4.34-1.474.85v1.7l7.544,4.347-1.3.733v1.7l1.475,0.85,2.787-1.574,6.235,3.592L275.9,155.4v1.7l1.474,0.85,4.341-2.454,3.161,1.82v4.816l-3.173,1.827-4.318-2.441-1.474.85v1.7l2.829,1.6L272.5,169.25l-2.764-1.56-1.474.85v1.7l1.274,0.718-7.533,4.341V177l1.474,0.849,7.545-4.346-0.013,1.487,1.474,0.849,1.475-.849,0.029-3.2,6.234-3.591L280.2,171.47l1.475,0.85,1.474-.85,0.041-4.977,3.16-1.822,4.179,2.408v3.655l-4.276,2.51v1.7l1.475,0.849,2.8-1.645v7.183l-2.736,1.609v1.7l1.475,0.852,1.261-.742v8.68L292,194.275l1.475-.848v-8.695l1.285,0.757,1.474-.852v-1.7l-2.759-1.622v-7.184l2.826,1.659,1.474-.849v-1.7l-4.3-2.524v-3.641l4.179-2.407,3.172,1.827,0.041,4.951,1.474,0.851,1.474-.851-0.026-3.245,6.235,3.593,0.028,3.168,1.474,0.85,1.475-.85-0.013-1.461,7.533,4.34L322,177v-1.7l-7.546-4.348,1.3-.732v-1.7l-1.475-.849-2.788,1.573-6.234-3.591,2.853-1.614v-1.7l-1.474-.849-4.341,2.455-3.161-1.82v-4.816l3.173-1.827,4.316,2.439,1.475-.848v-1.7l-2.829-1.6,6.235-3.592,2.764,1.56,1.474-.85v-1.7l-1.274-.719L322,144.135v-1.7Z"/>
</svg>
