<svg version="1.1" xmlns="http://www.w3.org/2000/svg" xmlns:xlink="http://www.w3.org/1999/xlink" x="0px" y="0px" width="100%" height="100%" viewBox="0 0 1212.329 1509.673" enable-background="new 0 0 1212.329 1509.673" xml:space="preserve">
<g id="Calque_14">
    <polygon fill="#2E6B9A" points="1137.435,1208.277 972.825,1509.673 82.043,302.745 250.341,1.006     "></polygon>
</g>
<g id="Calque_13">
    <circle fill="#EF6D3B" cx="606.164" cy="762.546" r="606.164"></circle>
</g>
<g id="Calque_12" display="none">
    <polyline fill="#2E6B9A" points="1165.559,1239.348 283.554,39.003 116.554,338.754 1003.229,1537.671     "></polyline>

        <image display="inline" overflow="visible" width="2000" height="2000" xlink:href="" transform="matrix(1 0 0 1 -361.4458 -202.9961)">
    </image>
    <polyline fill="#2E6B9A" points="717.22,1537.671 416.219,1239.004 1165.559,1239.348 1003.229,1537.671   "></polyline>
    <polyline fill="#2E6B9A" points="415.886,39.003 416.219,1239.004 716.221,1239.142 716.221,337.667   "></polyline>
    <path fill="#2E6B9A" d="M88.554,143.004"></path>
</g>
<g id="Calque_9">
    <polygon fill="#2E6B9A" points="684.38,1207.7 382.581,1207.197 383.335,0 684.38,299.536     "></polygon>
</g>
<g id="Calque_10">
    <polygon fill="#609ECC" points="972.621,1508.998 684.38,1509.58 382.581,1207.197 1137.437,1207.537  "></polygon>
</g>
<g id="Calque_11">
    <polygon fill="#609ECC" points="384.593,0 251.384,0 83.049,301.806 384.593,301.806  "></polygon>
</g>
</svg>