<svg id="denim-pattern" xmlns="http://www.w3.org/2000/svg" width="401" height="400" viewBox="0 0 401 400">
  <metadata><?xpacket begin="﻿" id="W5M0MpCehiHzreSzNTczkc9d"?>
<x:xmpmeta xmlns:x="adobe:ns:meta/" x:xmptk="Adobe XMP Core 5.6-c132 79.159284, 2016/04/19-13:13:40        ">
   <rdf:RDF xmlns:rdf="http://www.w3.org/1999/02/22-rdf-syntax-ns#">
      <rdf:Description rdf:about=""
            xmlns:xmp="http://ns.adobe.com/xap/1.0/">
         <xmp:CreatorTool>Adobe Photoshop CC 2015.5 (Windows)</xmp:CreatorTool>
      </rdf:Description>
   </rdf:RDF>
</x:xmpmeta>
                                                                                                    
                                                                                                    
                                                                                                    
                                                                                                    
                                                                                                    
                                                                                                    
                                                                                                    
                                                                                                    
                                                                                                    
                                                                                                    
                                                                                                    
                                                                                                    
                                                                                                    
                                                                                                    
                                                                                                    
                                                                                                    
                                                                                                    
                                                                                                    
                                                                                                    
                                                                                                    
                           
<?xpacket end="w"?></metadata>
<defs>
    <style>
      .cls-1 {
        fill: #2e53a8;
      }

      .cls-2 {
        fill: #eaeaea;
        fill-rule: evenodd;
        mix-blend-mode: overlay;
      }
    </style>
  </defs>
  <rect class="cls-1" width="401" height="400"/>
  <path class="cls-2" d="M0,400.016V-0.016H401V400.016H0ZM120.222,386.25c11.365,0.5,21.838-8.458,27.187-13.886,9.929-10.1-2.856-21.2-9.929-9.589-3.294,5.292-11.606,10.344-15.384,9.348C114.071,370.344,110.293,384.728,120.222,386.25Zm-5.667-30.8c2.116-9.845.695-22.722-9.234-32.808-10.639-10.825-20.342,3.528-10.02,10.253,8.282,5.458,8.72,17.686,4.957,24.757-20.372,38.054-86.853,4.372-67.962-58.5,5.91-15.468-8.265-17.4-11.093-8.562C-8.9,384.275,101.316,416.631,114.555,355.447Zm-9.461-98.454c-4.594,9.558,8.584,14.836,12.06,7.087,14.175-31.814,12.513-55.787-17.259-73.971-6.212-3.421-13.132,8.112-5.441,12.876C115.929,216.374,116.2,233.774,105.094,256.993ZM94.923,235.809c-13.344-2.458-31.918,2.518-42.769,12.107-8.265,8.594,1.874,17.158,7.331,12.634,5.757-5.518,22.215-11.88,34.4-10.372C100.121,251.2,104.611,237.574,94.923,235.809Zm-13.57-46.242c0.467-12.725-11.8-11.64-13.829-.212-2.207,12.273-1.722,22.105,1.119,31.18,2.916,9.409,14.477,5.669,12.574-2.382C80.1,213.359,79.962,198.673,81.353,189.567ZM52.381,201.719c6.831-3.648,6.377-16.645-3.295-13.87C-10,217.626,37.449,290.8,53.257,300.113c9.462,5.549,16.429-4.854,7.148-12.814C33.113,263.777,20.146,218.937,52.381,201.719Zm22.7,95.922C60.6,319.488,61.192,347.215,69.9,357.468c6.846,8.081,14.946-3.679,10.624-9.348C69.9,334.249,82.3,311.964,85.115,308.677,93.956,298.426,83.12,285.518,75.081,297.641Zm-52-112.734c16.035,1.765,20.311-21.182,1.889-24.319C12.514,158.236,8.433,183.325,23.077,184.907ZM135.651,31.5c-9.793-3.316-9.943,2.351-5.984,5.157,8.736,4.794,8.3,10.6,3.522,13.63-4.579,2.351-8.237-1.025-6.937-8.413,1.527-5.97-9.324-12.3-15.853,8.578-2.131,6.891-10.141,4.3-8.645-3.332,2.041-13.329-4.821-36.305-72.4-27.2-4.231.557-7.088,0.753-8.282,3.528-1.419,5.293,6.741,2.021,3.189,14.113C21.31,47.689,23.667,90.086,55.812,93.1c8.493,0.513,7.117,7.6.483,7.6-15.853,0-37.344,2.006-37.887,16.585-0.393,35.4,49.721,58.109,80.444,52.56,26.917-6.06,18.076-33.5-.6-29.7-16.67,3.363-34.382,9.5-49.917-4.312-3.9-3.452.166-7.825,3.717-6.483,9.551,3.708,25.51,7.96,38.144.693,19.42-10.855-12.981-37.844-21.248-47.7-4.5-5.549-5.048-14.082-.06-19.9,6.967-8.141,21.143,3.287,24.392,8.081,3.264,4.735,22.456,23.159,30.254,33.02,1.421,2.021,5.683,2.262,8.056-.753,4-6.574,6.6-18.183,3.762-27.772-1.692-4.8,4.821-5.609,6.514-2.594,3.415,6.891,3.159,18.485-1.072,34.919-9.945,33.8,14.175,36.1,18.6,13.48C170.623,64.516,144.054,36.02,135.651,31.5Zm24.181,168.142c-5.214-32.325-28.381-82.081-69.035-119.427-2.493-2.081-6.71-6.077-8.206-8.459,0,0-6.453-3.949-9.536-4.131-5.893-.27.272,7.313,2.872,9.589,67.327,75.477,72.541,130.51,81.065,180.989,1.434,10.253-.954,11.1-4.293,6.574-2.554-4.041-8.146-8.263-11.908-11.294-7.8-6.075-16.1,4.78-7.6,11.354,4.776,3.528,12.92,14.294,17.182,18.606,12.876,13.01,11.35,25.751,31.208,41.4,4.2,3.527,6.529,10.765-8.055,5.548-30.845-11.037-63-28.707-80.006-67.321-2.993-6.8-15.838-1.883-10.639,7.826,17.242,32.3,37.569,56.028,75.034,69.085,8.494,3.015,24.1,8.593,26.009,10.1,15.6,6.059,22.2-21.215,27.4-32.809,0.952-4.554,2.312-4.824-1.39-5.564-2.615-.5-11.349-2.006-15.611-6.075-14.312-15.183-15.6-26.749-17.26-44.147-1.072-11.158,2.222-18.049,9.371-18.365,5.168-.21,17.334,5.91,27.49-3.92,13.193-12.77,15.127-38.688,31.056-49,20.22-13.088,34.4,2.2,33.837-7.176-0.619-9.379-39.625-23.159-49.766,3.256-1.753,5.458-6.12,5.277-8.493,2.5-2.327-2.73-3.205-13.57-14.1-1.946-7.541,7.826-12.256,28.271-11.8,36.864-0.679,11.1-18.755,9.258-13.555-8.925,8.931-31.331,32.144-59.571,80.806-83.8,15.612-8.083,52.442-33.925,70.9-61.576,8.675-12.936-.438-8.082-0.438-8.082-42.558,61.576-120.1,63.566-149.873,119.141-1.859,3.53-3.99,3.017-3.31-.512,6.605-31.556,18.075-50.931,31.571-80.452,3.31-10.086-7.572-13.117-11.35-5.549-18.678,36.1-32.612,66.129-36.285,105.692C162.885,203.166,160.481,203.649,159.832,199.638Zm48.6,69.537c-14.644-4.041-18.755,15.485-7.195,20.776C216.49,296.948,223.4,274.634,208.435,269.175ZM178.845,85.112c13-5.308,28.411-5.7,37.328-3.378,6.86,1.749,11.092-12.137,1.646-14.142-11.712-2.518-30.966-.664-41.831,3.136C166.3,74.014,171.71,88.006,178.845,85.112Zm28.819-73.186c-11.91-3.8-30,2.246-35.2,19.662-6.227,20.777,9.279,27.019,15.353,17.67,5.9-9.077-5.606-13.238.954-21.44C199.4,14.428,220.9,25.285,213.119,50.795c-2.72,9.288,9.612,13.69,12.514,4.281C231.315,36.653,226.222,17.775,207.664,11.925ZM384.286,116.171c-6.379-16.164-24.18-5.384-35.047-11.912-6.377-3.83-2.7-10.645,3.416-9.77,10.322,1.447,20.583-13.208,22.594-23.265,2.81-14.127,2.327-21.711-.968-41.386-4.594-19.45-15.475-12.455-19.254-8.926C347,26.475,344.146,17.9,324.561,23.444c-36.029,10.208-31.918,29.764-37.6,28.768-7.194-1.281-5.819-5.729-2.812-22.194C287.9,9.317,261.026,6.528,243,40.724c-12.771,24.124-18.907,43.815-14.162,65.013,9.462,24.228,28.23,4.855,24.453-5.217-6.045-18.214-2.252-23.128-2.252-26.6,0-14.385,14.9-22.194,10.745-3.2-4.716,29.28,16.413,40.951,66.632-16.163,3.31-4.794,8.75-10.343,10.17-11.88,5.924-5.277,10.626-2.864,11.124,4.312,0.241,3.287-2.826,11.051-4.6,14.505-1.722,3.437-6.634,11.669-6.634,11.669-6.12,13.872-21.837,32.267-37.464,43-6.635,4.537-6.091,10.041,1.088,12.272,10.911,2.639,29.847.709,37.328-1,7.1-2.532,10.08,3.077.484,6.817-13.784,5.411-46.109,8.141-53.574,4.009-9.9-5.457-29.275,1.6-22.322,11.912,10.095,14.911,58.411,15.122,81.094,10.071C373.949,152.175,390.664,132.334,384.286,116.171ZM289.665,316.08c-13.661,11.294-5.517,13.164,1.633,8.067,35.257-28.768,57.488-69.175,48.481-141.094-1.874-11.88-14.66-4.945-13.556,1.192C335.986,238.327,328.188,275.688,289.665,316.08Zm86.944-123.874c10.669-1.795,10.9-23.023.528-17.989-5.395,2.61-6.771,6.394-18.891,2.534-4.776-1.538-14.583,3.588-7.466,10.011,3.552,3.016,1.875,7.826,3.386,11.7,5.818,16.569,24.241,9.755,17.788-2.625C371.681,194.211,373.464,192.551,376.609,192.206Zm-0.424,45.337c-10.941-21.983-34.215-2.443-24.286,13.81,11.546,18.786,18.6,38.976,15.748,65.739-1.738,16.584-16.775,12.3-11.653-2.685,8.372-24.576-8.644-49.815-19.525-29.627-25.6,47.539-53.529,55.2-64.41,50.8-1.874-.633-0.212-4.673-6.816.107-7.179,5.955-15.309,13.041-17.7,7.914-2.4-5.1,55.372-41.658,63.867-81.537,5.138-24.033-29.077-21.953-46.17-7.388-5.063,4.281-10.368-2.186-2.524-9.529,6.53-5.578,18.619-14.067,38.3-11.61,17.651,2.112,16.684-19.752,4.443-24.666-42.24-15.288-121.053,71.466-63.745,68.9,19.132-.845,21.143,13.524,9.793,20.052C206.939,323.65,217.819,360.484,197.961,361c-17.515.452-13.223,13.63,0.952,17.173,61.872,15.424,107.557-7.252,119.844-39.563,2.373-5.563,8.493-6.558,11.817-2.518,7.074,9.589,4.519,21.532,2.6,27.939-6.619,22.223,23.637,20.068,35.47,1.01C386.114,336.781,394.139,273.669,376.185,237.543ZM357.142,339.722c-3.248-1.161-.679-8.036,3.085-6.558C365.425,335.183,363.535,342,357.142,339.722Zm-4.713,11.865c-2.374-1.266-.257-5.547,1.9-4.281C357.929,349.417,355.661,353.307,352.429,351.587ZM248.694,266.266c-4.745-2.518-1.9-12.62,4.233-10.6C259.787,257.927,256.206,270.291,248.694,266.266Zm-15.6,91.895c-3.793-2.021-1.239-12.031,3.9-8.985C244.432,353.608,239.37,361.509,233.1,358.161ZM218.44,362.2c-2.388-1.371-1.436-10.1,3.9-7.477C228.64,357.89,224.605,365.761,218.44,362.2Zm152.2-242.338c-2.372-1.251-.256-5.534,1.875-4.3C376.124,117.708,373.812,121.6,370.638,119.864Zm-14.87,8.851c-3.279-1.177-.741-8.052,3.038-6.574C364,124.162,362.146,130.977,355.768,128.715Zm2.085-97.188c3.477,2.382,3.7,7.794.469,6.091C355.027,35.839,353.863,28.737,357.853,31.527Zm2.6-8.082c3.642,2.141,1.344,6.031-1.859,4.283C356.206,26.475,358.337,22.178,360.453,23.444Zm-99,26.762c-4.746-2.518-1.9-12.62,4.231-10.614C270.955,41.326,267.464,53.418,261.45,50.207ZM203.3,225.888c1.724,0.844,1.284,6.348-2.342,4.78C198.582,229.672,199.684,224.125,203.3,225.888Zm12.242-19.435c2.75-7.176,10.9,1.508,2.493,4.192-5.758,1.869-1.919,6.152-3.007,8.473-3.506,6.589-12.635,4.764-.756-8.081C215.431,209.771,215.13,208.233,215.538,206.453ZM134.262,60.535c-2.388-1-1.24-6.545,2.356-4.8C138.327,56.585,137.843,62.073,134.262,60.535ZM50.719,49.046c-1.36-3.86-4.791-2.05-7.648-3.136-9.188-4.7,4.5-17.068,5.2-3.951,0.317,5.292,2.116,3.2,5.2,3.71C65.983,46.151,55.1,61.561,50.719,49.046ZM32.673,126.935c-4.745-2.5-3.324-9.075,2.8-7.071C40.79,121.6,38.689,130.132,32.673,126.935Z"/>
</svg>
