<svg id="pencil_art" data-name="pencil art" xmlns="http://www.w3.org/2000/svg" viewBox="0 0 38.29 73.26"><defs><style>.cls-1{fill:#dec398;}.cls-2{fill:#d2366d;}.cls-3{fill:#deab11;}.cls-4,.cls-7,.cls-8{stroke:#000;}.cls-4,.cls-7{stroke-linecap:round;}.cls-4,.cls-8{stroke-miterlimit:10;}.cls-4{stroke-width:4px;}.cls-5{fill:#fff;}.cls-6{fill:#0093b4;}.cls-7,.cls-8{fill:none;stroke-width:2px;}.cls-7{stroke-linejoin:round;}</style></defs><title>made by shafi-logo</title><path class="cls-1" d="M176.53,160.16c9.5,2.93,25.08,4.39,36.31.06-0.93-15.55-12.69-33.94-12.69-33.94H188.28C180.48,137.28,175.73,157.16,176.53,160.16Z" transform="translate(-174.68 -112.87)"/><path class="cls-2" d="M193.68,184.39a2.28,2.28,0,0,1-2.34-1.28,43,43,0,0,1-3-10.06,48.78,48.78,0,0,1-.75-5.08c-0.06-.68-0.1-1.37-0.1-2.05s0-1.55,0-2.33a1.67,1.67,0,0,1,.19-0.77,8.83,8.83,0,0,1,3-3.3,6.12,6.12,0,0,1,3.63-1.17,12.08,12.08,0,0,1,3.37.67,2.44,2.44,0,0,1,.5.2c3.52,1.95,4.56,4.57,4.6,5,0.07,0.9.1,1.8,0.08,2.71a47.64,47.64,0,0,1-.46,5.67c-0.24,1.76-.55,3.5-0.9,5.24q-0.4,1.94-.89,3.86l-0.07.26a2.27,2.27,0,0,1-1.76,1.63C197.21,183.94,195.1,184.22,193.68,184.39Z" transform="translate(-174.68 -112.87)"/><path class="cls-3" d="M199.8,182.31c2.36-5.68,2.67-12.18,2.62-15.82a7.18,7.18,0,0,1,2.54-5.8,4,4,0,0,1,1.45-.82c7.23-4,9.69,13.75-6.14,22.89C199.93,182.85,199.66,182.63,199.8,182.31Z" transform="translate(-174.68 -112.87)"/><path class="cls-4" d="M194.54,115l5.36,10.86L189,125.73,194,115A0.31,0.31,0,0,1,194.54,115Z" transform="translate(-174.68 -112.87)"/><path class="cls-5" d="M183.89,180.06c-12.14-9.79-5.84-27.43-5.47-28.44l0-.1a91,91,0,0,1,4.67-14.92c2.12-4.38,3.23-7.53,4-9.05,0.24-.45.43-0.8,0.6-1.07l0.41-.72,0.06-.1,0.21-.36,0.24-.45c0.73-1.34,1.2-2.2,1.49-2.81,0.06-.14,3.25-6.59,4.59-6.24,0,0,0,.94,0,0.92-1.29,1.24-1.44,1.41-3.46,5.13-0.5.93-1.81,3.58-2,4l-0.05.1L188.62,127c-0.16.26-.35,0.59-0.58,1-0.77,1.47-2.15,4.57-4,9a99,99,0,0,0-3.35,10.44c-0.45,1.61-.88,3.13-1.28,4.42l0,0.1c-0.39,1.05-6.39,18,5.16,27.34Z" transform="translate(-174.68 -112.87)"/><path class="cls-6" d="M177.55,160.23c0.06-1.3.9-1.7,1.94-2a7,7,0,0,1,6.86,2,7.87,7.87,0,0,1,1.22,2,16.73,16.73,0,0,1,.46,1.82,13,13,0,0,1,.32,2c0.12,1.38.09,2.77,0.13,4.15a43.63,43.63,0,0,0,.59,5.6c0.15,0.91,2.89,7.34,2.73,8.06-0.35,1.52-2.59,0-3-.24-0.75-.42-8.69-5.46-10.57-15.14-0.14-.72-0.27-0.82-0.47-1.86a7.26,7.26,0,0,1-.14-1.24C177.59,164.08,177.52,160.79,177.55,160.23Z" transform="translate(-174.68 -112.87)"/><path class="cls-7" d="M176.13,160.05c2.58,0,6.78-.61,9.1,4.27,0,0,7.36-9.45,16.62,0a9.43,9.43,0,0,1,9.63-4.37" transform="translate(-174.68 -112.87)"/><path d="M201.7,128.3H186.29c-0.6,0-.6-2,0-2H201.7C202.3,126.3,202.3,128.3,201.7,128.3Z" transform="translate(-174.68 -112.87)"/><path class="cls-8" d="M197.55,118.66c8.44,15.72,29,59.87-2.46,66.39a3.72,3.72,0,0,1-1.35,0c-33.69-5.59-11.6-50.67-2.61-66.5A3.67,3.67,0,0,1,197.55,118.66Z" transform="translate(-174.68 -112.87)"/></svg>