<svg id="topRect" xmlns="http://www.w3.org/2000/svg" width="582" height="192" viewBox="0 0 582 192">
  <defs>
    <style>
      .cls-1 {
        fill: #2b4d6d;
      }

      .cls-2 {
        fill: #eeeef2;
        fill-rule: evenodd;
      }
    </style>
  </defs>
  <rect id="topRect-2" data-name="topRect" class="cls-1" width="582" height="192"/>
  <path id="tree" class="cls-2" d="M41.835,168.249l-0.214-.29c0.972,0.066-.669-0.977-0.669-0.977a2.839,2.839,0,0,1-.753-0.488c-0.585-.325-1.582-0.93-1.229-0.645a3.26,3.26,0,0,0-1.029-.25s-0.486.14-.5-0.12a1.579,1.579,0,0,0-.224-0.6l-0.457-.155a1.8,1.8,0,0,0-.08-0.808,1.063,1.063,0,0,1,.606.309c0.624,0.756.792,0.1,0.173-.529l1.313,0.727-0.023-.52,1.22,0.861,1.3,0.467a2.925,2.925,0,0,0-1.023-.87c-0.809-.487-2.122-1.214-2.122-1.214s-2.082-.3-2.4-0.811a4.669,4.669,0,0,0-.444-0.569c1,0.326,2.038.6,2.038,0.6l-1.346-.726-1.72-.908-0.868-.819a2.014,2.014,0,0,1-.1-1.1c0.024,0.074.048,0.147,0.072,0.217a1.192,1.192,0,0,0,.222.782l0.393-1.01,0.007,0.012-0.1.464a1.785,1.785,0,0,1,.424.677c0.061,0.171.1,0.035,0.118-.188a0.113,0.113,0,0,0,.05.016,1,1,0,0,0-.017-0.844V158.9l0.186,0.112,0.2,0.47s0.529,1.781.743,1.477c0-.008.008-0.018,0.012-0.026,0.155,0.264.176-.215,0.166-0.666a0.635,0.635,0,0,0,.382.528,1.97,1.97,0,0,0-.213-1.06l0.405,0.215a3.987,3.987,0,0,0,.705,1.1c0.27,0.162-.178-1.036-0.178-1.036l0.945,0.569a2.553,2.553,0,0,0,.829.922c0.262-.011-0.366-0.854-0.366-0.854l0.817,0.66c0.621,0.669,1.388.2,0.852-.035a22.4,22.4,0,0,1-2.305-1.641,15.9,15.9,0,0,0-1.658-1.842,2.337,2.337,0,0,0-.968-0.4l-0.342-.781a0.154,0.154,0,0,0,.09-0.059l0.866,0.656,0.382-.276,0.358,0.68,0.539,0.325-0.031-.694a1.632,1.632,0,0,1,.482.5,1.139,1.139,0,0,0,.74.4L37.4,156.969h0l0.477,0.5a0.8,0.8,0,0,0,1,.3l-0.435-.937a11.666,11.666,0,0,0-2.143-.953,13.748,13.748,0,0,1-3.067-2.6,3.162,3.162,0,0,0-.164-1.07,1.462,1.462,0,0,1,1.007.882c0.011,0.594,1.55.167,1.55,0.167l-0.631-.887s0.8,0.228,1.1.346a2.022,2.022,0,0,0,.694.1,7.715,7.715,0,0,0-1.723-1.1,17.873,17.873,0,0,1-2.779-2.878l-0.349-1.031-0.474-1.805a3.963,3.963,0,0,0-.418,1.669,6.444,6.444,0,0,1-.981,2.311,6.039,6.039,0,0,1-1.85,1.207,2.764,2.764,0,0,0-1.276.836,1.6,1.6,0,0,1-.9.385c-0.332-.072-0.639.375,0.078,0.258,0.525-.086.837-0.162,0.968-0.2a0.144,0.144,0,0,0,.022.04l-0.635.75a1.547,1.547,0,0,0,.837-0.383c0.443-.366.7-0.55,0.7-0.55l-0.347,1.057a0.9,0.9,0,0,0,.706-0.377,6.986,6.986,0,0,1,.617-0.9l0.366,0.853,1.15-.128a1.1,1.1,0,0,1-.091.334,18.4,18.4,0,0,1-3.069,1.867l-1.75.507-1.133,1.091s-0.046.436,0.466,0.154l0.57-.458s-0.875.992-.42,0.886a2.077,2.077,0,0,0,.89-0.646l0.648-.2-0.018.034a0.273,0.273,0,0,0-.045.089l-0.481.942a1.555,1.555,0,0,0,.894-0.559,1.446,1.446,0,0,1,.567-0.545l0.2,0.165-0.424.8s0.381-.276.7-0.551a2.234,2.234,0,0,1,1-.131,1.709,1.709,0,0,0-.635,1.072c-0.274-.069-0.293.327-0.74,0.346a12.474,12.474,0,0,0-2.648.98,2.087,2.087,0,0,0-1.249-.035c-0.647.2-.173,0.529,0.22,0.512l-0.768.467s-1.45,1.364-.408,1.147l0.756-.727s-0.235.618,0.339,0.246l0.756-.726-0.277,1.141a0.743,0.743,0,0,0,.5-0.543l0.428-.713s-0.065,1.48.112,1.038,0.417-.973.417-0.973,0.1,0.778.42,0.59a0.531,0.531,0,0,0,.17-0.615l0.575-.372,0.5,0.849a2.32,2.32,0,0,1,.49-0.8,1.048,1.048,0,0,1,.517-0.2l0.164,0.2-0.046.139a1.6,1.6,0,0,0-1,.96l0.016,0.185a18.339,18.339,0,0,0-4.351,1.636,9.1,9.1,0,0,0-1.576,1.457s-0.752.813-.293,0.794a0.8,0.8,0,0,0,.632-0.548l0.7-.463L22.251,164.9a3.493,3.493,0,0,0,.872-1.079,1,1,0,0,1,.632-0.548l-0.073,1.307a3.317,3.317,0,0,0,.439-0.453,7.073,7.073,0,0,1,.482-0.976,3.9,3.9,0,0,0,.713-0.2l-0.16.646a0.237,0.237,0,0,0-.137.062,2.125,2.125,0,0,1-.718.464,3.765,3.765,0,0,1-.419.539c0.325-.313-1.069.327-1.141,0.917-0.038.307-.2-0.079-0.841,0.3,0,0-.964.823-0.182,0.7l-0.686.811s-1.43,1.8-.906,1.775a1.471,1.471,0,0,0,.879-0.906s-0.232.705,0.3,0.77,1.006-1,1.006-1l0.713-.858c0,0.022,0,.043,0,0.064-0.1.348-.407,1.463,0.033,1.371,0.52-.109.2-1.312,0.786-1.511a5.581,5.581,0,0,0,1.219-.659s-0.4,1.407-.085,1.046,0.976-1.692,1.3-1.705-0.309,1.924.936,0.4a9.081,9.081,0,0,0,.865-1.149l0.931,0.2c0.045,0.107.092,0.215,0.14,0.321l-0.668.372s-0.163-.048-0.215.335a0.435,0.435,0,0,1-.363.411,1.852,1.852,0,0,1-.242.529c0.24-.33-0.755.445-1.022,0.655a5.21,5.21,0,0,0-.7.264,1.766,1.766,0,0,0-.38.641c-0.136.1-.267,0.189-0.381,0.266a3.459,3.459,0,0,0-1.4.5l-1.2,1.295-1.045.8s-1.061,1.753.432,0.577l0.753-.976,0.585,0.081-0.92.977s-1.166,1.468.553,0.15a5.07,5.07,0,0,0,.952-1.045l0.65-.3c-0.356.679-.8,1.613-0.59,1.67,0.334,0.091.759-1.115,0.759-1.115a1.542,1.542,0,0,0,.01,1.193c0.317,0.219.486-1.182,0.486-1.182l0.162-.127a2.6,2.6,0,0,0,.324.361c0,0.372.039,0.765,0.225,0.746,0.351-.036.52-1.548,0.931-1.7l0.037-.018a2.737,2.737,0,0,0,.35,1.041,7.022,7.022,0,0,0-.487,2.415c0.25,0.123.537-1.4,0.537-1.4a3.269,3.269,0,0,0,.036,1.518c0.239,0.286.61-1.532,0.61-1.532l0.474-1.433s-0.336,1.733-.077,1.694,0.283-1.078.584-1.263,0.2-.007.2-0.007-0.043,1.4.153,0.834c0.109-.319.217-0.879,0.317-1.3l0.225,0.62,0.115-.039c0.053,0.493.172,0.7,0.547-.63,0.3-1.054.381-1.384,0.381-1.384l0.164-.047,0.217,1.964s0,2.216.15,3.382a47.034,47.034,0,0,1-.584,6.1c0.186,0.078.353,0.135,0.512,0.184,0.048,0.2.219,0.477,0.825,0.336a0.62,0.62,0,0,0,.327-0.2,0.852,0.852,0,0,0,.749-0.711s-0.383-4.2-.3-4.592-0.4-4.545-.4-4.545l-0.031-.7c0.486,0.809.072-1.3,0.255-1.307,0.212-.009.764,1.923,1,2.434s-0.154-1.558-.154-1.558a4.054,4.054,0,0,0,.844.877c0.393,0.244.3,2.072,0.649,2.188s-0.14-2.209-.14-2.209L35.5,172.9s0.408,1.547.741,1.4,0.118-1.178.118-1.178,0.311,1.29.649,1.277-0.75-2.576-.75-2.576l-0.518-1.151c0.514,0.109.394-1.157-.052-1.66a0.348,0.348,0,0,0-.249-0.127c-0.037-.1-0.064-0.175-0.064-0.175a5.566,5.566,0,0,0,1.272.555c0.6,0.149.389,1.374,0.917,1.438s-0.131-1.471-.131-1.471l0.825,0.834s0.57,1.019,1.09.91,0.228-.791.228-0.791a1.479,1.479,0,0,0,.956.828c0.524-.022-1.059-1.692-1.059-1.692l-0.756-.751a0.456,0.456,0,0,0,.519-0.242c0.325,0.363.247,1.244,0.694,1.3,0.528,0.065-.131-1.472-0.131-1.472l0.825,0.834s0.57,1.019,1.09.91,0.228-.791.228-0.791a1.48,1.48,0,0,0,.955.829C43.419,169.92,41.835,168.249,41.835,168.249Z"/>
  <path id="butterfly" class="cls-2" d="M569.866,15.279c-0.473-2.542-3.938-.795-7.089.954s-5.251,6.992-5.251,6.992-0.363.115-.131-0.4a0.575,0.575,0,0,0-.089-0.8l1.451-3.4a0.826,0.826,0,0,0,.2-0.3A0.448,0.448,0,0,0,559,17.916a0.441,0.441,0,0,0-.261.322,0.836,0.836,0,0,0-.082.348l-1.447,3.392A0.312,0.312,0,0,0,557,21.928a0.482,0.482,0,0,1-.207.066l-1.453-3.407a0.821,0.821,0,0,0-.082-0.348A0.443,0.443,0,0,0,555,17.916a0.448,0.448,0,0,0,.052.413,0.827,0.827,0,0,0,.194.3l1.457,3.414a0.553,0.553,0,0,0-.094.786c0.232,0.512-.131.4-0.131,0.4s-2.1-5.244-5.251-6.992-6.617-3.5-7.089-.954,0.42,2.543.683,3.655,0.524,4.185,1.417,4.926,4.516,0.794,4.516.794-4.043,2.225-3.99,3.549,1.155,8.687,3.413,8.793,3.728-3.337,4.358-4.979,1.418-4.979,1.733-5.085,0.052,2.172.263,2.7S557,30.1,557,30.1s0.262,0.066.473-.464-0.053-2.807.262-2.7,1.1,3.443,1.733,5.085,2.1,5.085,4.358,4.979,3.361-7.469,3.413-8.793-3.99-3.549-3.99-3.549,3.623-.053,4.516-0.794,1.155-3.814,1.418-4.926S570.339,17.822,569.866,15.279Z"/>
  <path id="paintBrush" class="cls-2" d="M330.136,126.337l0.123-.121,7.958,7.962-0.837.839a23.572,23.572,0,0,1,13.181,7.258c2.788,3.164,3.626,12.938,3.442,18.707-2.976-4.838-5.232-6.337-13.392-9.306-6.985-2.544-7.739-9.962-7.808-12.082l-0.655.658-7.958-7.964,0.113-.11s-14.276-7.756-23.669-19.079S226.508,34.522,229.1,31.086c3.435-2.6,70.66,62.173,81.965,71.57S330.136,126.337,330.136,126.337Z"/>
</svg>
